# xmcd
#
# Track frame offsets: 
#        150
#        4054
#        21541
#        49252
#        76965
#        97764
#        119886
#        136222
#
# Disc length: 2154 seconds
#
# Revision: 0
# Processed by: cddbd v1.5.2PL0 Copyright (c) Steve Scherf et al.
# Submitted via: ExactAudioCopy v1.0b1
#
DISCID=64086808
DTITLE=Gene Dunlap Featuring The Ridgeways - It's Just The Way I Feel
DYEAR=1981
DGENRE=Soul
TTITLE0=The Intro
TTITLE1=Rock Radio
TTITLE2=Before You Break My Heart
TTITLE3=I Got You
TTITLE4=Love Dancin'
TTITLE5=It's Just The Way I Feel
TTITLE6=Should I Take Her Back, Should I Let Her Go
TTITLE7=Surest Things Can Change
EXTD=
EXTT0=
EXTT1=
EXTT2=
EXTT3=
EXTT4=
EXTT5=
EXTT6=
EXTT7=
PLAYORDER=
